#!OML:ASF E:\emotionWalksFemale\Project 1\Capture day 1\Session 1\Female1.ASF
:FULLY-SPECIFIED
:DEGREES
1459
root 9.95441 14.9381 -17.3055 -4.26533 -6.09431 357.623
lowerback 1.64332 -6.61394 0.475159
upperback -6.39991 -8.61809 4.00204
thorax -7.05482 -4.16641 4.5629
lowerneck -1.59542 9.91948 7.51172
upperneck 18.3911 13.5092 -2.74509
head 6.57517 6.86834 -1.18376
rclavicle 6.04305e-014 -2.54444e-014
rhumerus -44.1436 -8.8594 -66.5966
rradius 38.4071
rwrist -1.56682
rhand 160.33 -68.8577
rfingers 7.12502
rthumb -173.342 -38.9824
lclavicle 6.04305e-014 -2.54444e-014
lhumerus -40.837 4.18543 79.9415
lradius 29.506
lwrist -26.0138
lhand -7.0244 -34.9515
lfingers 7.12502
lthumb 18.8474 -5.84459
rfemur -10.82 10.868 36.3346
rtibia 33.5882
rfoot -17.715 -27.6543
rtoes 15.0774
lfemur -14.4089 11.8006 -15.5322
ltibia 78.0868
lfoot -3.56216 -8.59479
ltoes -23.9737
1460
root 9.95868 14.9143 -17.1757 -4.22004 -6.54681 357.589
lowerback 1.68405 -6.52501 0.380044
upperback -6.34108 -8.50545 4.00089
thorax -7.00837 -4.10711 4.60501
lowerneck -1.72169 9.95716 7.28198
upperneck 18.6149 13.5289 -2.47976
head 6.63487 6.87865 -1.05411
rclavicle -1.03368e-014 -4.77083e-014
rhumerus -42.7389 -8.03471 -67.7677
rradius 38.1815
rwrist -1.32457
rhand 159.774 -69.196
rfingers 7.12502
rthumb -173.878 -39.3044
lclavicle -1.03368e-014 -4.77083e-014
lhumerus -41.0116 5.31302 78.9687
lradius 29.638
lwrist -26.0711
lhand -9.83037 -36.2154
lfingers 7.12502
lthumb 16.147 -6.86799
rfemur -10.4494 10.8763 36.4635
rtibia 33.9575
rfoot -18.2801 -27.6936
rtoes 14.7145
lfemur -16.3469 11.3561 -15.6908
ltibia 78.7593
lfoot -5.37211 -6.92895
ltoes -23.6091
1461
root 9.9636 14.9074 -17.038 -4.2255 -7.04265 357.572
lowerback 1.64215 -6.42164 0.355844
upperback -6.23703 -8.37365 3.9594
thorax -6.88362 -4.04577 4.5504
lowerneck -1.67901 9.96933 7.23256
upperneck 18.737 13.5476 -2.44114
head 6.66164 6.88673 -1.03284
rclavicle -1.28415e-013 -2.22639e-014
rhumerus -41.539 -6.74264 -69.0787
rradius 38.336
rwrist -1.59845
rhand 159.193 -70.1101
rfingers 7.12502
rthumb -174.44 -40.2031
lclavicle -1.28415e-013 -2.22639e-014
lhumerus -41.1608 6.12963 78.1678
lradius 29.7434
lwrist -25.8532
lhand -12.6051 -37.0075
lfingers 7.12502
lthumb 13.4738 -7.46337
rfemur -9.96508 10.9025 36.5673
rtibia 34.2486
rfoot -18.5598 -27.8326
rtoes 13.6499
lfemur -18.3138 10.8086 -15.8854
ltibia 79.1058
lfoot -6.85401 -5.36246
ltoes -21.3533
1462
root 9.97151 14.8898 -16.9056 -4.25452 -7.52156 357.462
lowerback 1.69376 -6.29364 0.499224
upperback -6.15899 -8.19852 3.88543
thorax -6.87205 -3.96939 4.38577
lowerneck -1.46822 9.97162 7.27284
upperneck 18.7374 13.5543 -2.41208
head 6.62725 6.89726 -1.04138
rclavicle 7.99114e-014 -6.04305e-014
rhumerus -40.4672 -5.557 -70.2309
rradius 38.5738
rwrist -1.30207
rhand 159.869 -70.8821
rfingers 7.12502
rthumb -173.787 -40.9932
lclavicle 7.99114e-014 -6.04305e-014
lhumerus -41.4063 6.72829 77.4134
lradius 29.9389
lwrist -25.3443
lhand -14.5324 -37.5247
lfingers 7.12502
lthumb 11.6157 -7.86669
rfemur -9.47522 10.9655 36.7707
rtibia 34.5332
rfoot -18.7591 -27.9769
rtoes 12.3051
lfemur -19.9506 10.186 -15.9696
ltibia 79.2301
lfoot -8.48441 -3.59066
ltoes -20.7466
1463
root 9.97947 14.8734 -16.7748 -4.15479 -7.84289 357.277
lowerback 1.74567 -6.21106 0.635424
upperback -6.17731 -8.0783 3.90046
thorax -6.9461 -3.91505 4.32977
lowerneck -1.32726 9.96512 7.13297
upperneck 18.838 13.5431 -2.28015
head 6.6156 6.89346 -0.987046
rclavicle 2.94201e-014 -1.74931e-014
rhumerus -39.4521 -4.42153 -71.1709
rradius 38.7987
rwrist -0.827503
rhand 160.001 -69.8087
rfingers 7.12502
rthumb -173.66 -39.9236
lclavicle 2.94201e-014 -1.74931e-014
lhumerus -41.6288 7.41719 76.7143
lradius 29.9976
lwrist -24.9847
lhand -15.9962 -38.094
lfingers 7.12502
lthumb 10.2038 -8.36149
rfemur -9.01425 11.0108 36.9943
rtibia 34.7615
rfoot -19.7331 -27.6569
rtoes 13.7652
lfemur -21.751 9.30389 -16.0155
ltibia 79.129
lfoot -9.82567 -1.6793
ltoes -20.307
1464
root 9.98696 14.859 -16.6392 -4.05608 -8.12841 357.184
lowerback 1.72645 -6.12023 0.703819
upperback -6.18166 -7.95475 3.87467
thorax -6.96017 -3.85826 4.25637
lowerneck -1.42758 9.90002 7.1674
upperneck 19.2308 13.4681 -2.34428
head 6.7626 6.8515 -1.00209
rclavicle -6.75868e-015 2.46493e-014
rhumerus -38.3827 -3.42073 -72.0555
rradius 38.8851
rwrist -0.392481
rhand 160.626 -69.9661
rfingers 7.12502
rthumb -173.056 -40.1
lclavicle -6.75868e-015 2.46493e-014
lhumerus -41.8917 8.09411 76.0074
lradius 29.9484
lwrist -25.2086
lhand -17.7392 -38.4613
lfingers 7.12502
lthumb 8.52205 -8.65329
rfemur -8.5446 11.0317 37.1085
rtibia 34.9592
rfoot -20.8962 -27.3588
rtoes 15.9182
lfemur -23.4877 8.3339 -16.1556
ltibia 78.7509
lfoot -11.2209 0.133031
ltoes -19.4938
1465
root 9.99545 14.8504 -16.5005 -4.08871 -8.36985 357.079
lowerback 1.77037 -6.07121 0.861995
upperback -6.13392 -7.88318 3.81394
thorax -6.96858 -3.83297 4.10518
lowerneck -1.42338 9.92837 6.82952
upperneck 19.4909 13.4533 -1.87781
head 6.78856 6.85443 -0.803547
rclavicle 6.79844e-014 -3.4191e-014
rhumerus -37.2588 -2.30472 -73.0559
rradius 38.9546
rwrist -0.242964
rhand 160.888 -69.9312
rfingers 7.12502
rthumb -172.803 -40.0735
lclavicle 6.79844e-014 -3.4191e-014
lhumerus -42.3764 8.92082 75.1877
lradius 30.0359
lwrist -25.8864
lhand -19.0796 -38.3657
lfingers 7.12502
lthumb 7.22831 -8.50912
rfemur -7.89822 11.036 37.2616
rtibia 35.0292
rfoot -21.6316 -27.4866
rtoes 16.049
lfemur -24.9523 7.25338 -16.2183
ltibia 78.0028
lfoot -12.3186 1.76869
ltoes -21.4768
1466
root 10.0057 14.843 -16.3606 -4.09968 -8.66338 356.862
lowerback 2.006 -6.03295 1.07898
upperback -6.19218 -7.80823 3.88379
thorax -7.19162 -3.80024 4.09265
lowerneck -1.41631 10.0012 6.61565
upperneck 19.9139 13.5459 -1.6755
head 6.89924 6.89799 -0.691126
rclavicle -5.56597e-014 -3.73715e-014
rhumerus -36.3479 -0.823302 -73.9119
rradius 39.2428
rwrist -0.395737
rhand 159.159 -69.4622
rfingers 7.12502
rthumb -174.472 -39.5543
lclavicle -5.56597e-014 -3.73715e-014
lhumerus -43.0176 9.7497 74.5446
lradius 30.2017
lwrist -26.3088
lhand -19.3584 -37.8881
lfingers 7.12502
lthumb 6.95921 -8.0225
rfemur -7.11342 11.1047 37.5291
rtibia 34.9036
rfoot -21.8911 -27.6216
rtoes 14.8277
lfemur -26.2486 6.16961 -16.1165
ltibia 76.942
lfoot -13.0236 3.19627
ltoes -21.0893
1467
root 10.0095 14.8446 -16.2141 -4.01297 -9.21002 356.833
lowerback 1.54965 -5.8859 1.20404
upperback -5.99409 -7.62541 3.81322
thorax -6.7511 -3.72953 3.86257
lowerneck -1.39518 10.0413 6.59141
upperneck 19.9495 13.6012 -1.66255
head 6.90707 6.92317 -0.679353
rclavicle -2.50469e-014 2.70347e-014
rhumerus -35.3385 0.426107 -74.7337
rradius 39.6755
rwrist -0.26188
rhand 159.978 -70.1079
rfingers 7.12502
rthumb -173.682 -40.2221
lclavicle -2.50469e-014 2.70347e-014
lhumerus -43.0843 10.2358 74.0182
lradius 30.1478
lwrist -26.2963
lhand -18.7205 -37.2978
lfingers 7.12502
lthumb 7.57494 -7.45342
rfemur -6.26724 11.5067 37.6276
rtibia 34.5487
rfoot -21.9786 -27.6972
rtoes 13.8124
lfemur -27.3708 5.40564 -16.1452
ltibia 75.529
lfoot -13.6982 4.3617
ltoes -18.9308
